<svg width="160" height="43" viewBox="0 0 160 43" fill="none" xmlns="http://www.w3.org/2000/svg">
<path d="M18.8075 14.4406C18.2592 16.7122 26.035 23.4728 28.1775 17.9694C29.42 14.7807 30.505 8.09594 29.2717 7.77819C28.0384 7.46131 19.355 12.1681 18.8075 14.4406Z" fill="url(#paint0_linear_14_93)"/>
<path d="M18.8075 14.4406C18.2592 16.7122 26.035 23.4728 28.1775 17.9694C29.42 14.7807 30.505 8.09594 29.2717 7.77819C28.0384 7.46131 19.355 12.1681 18.8075 14.4406Z" fill="black" fill-opacity="0.2"/>
<path d="M20.4691 14.9168C19.6691 16.2412 21.995 18.8443 23.2758 19.6719C24.5575 20.4994 25.6916 19.1965 26.9541 15.8709C27.5058 14.4165 28.3425 10.4718 27.8733 10.1686C27.405 9.86639 21.27 13.5924 20.4691 14.9168Z" fill="#012A68"/>
<path d="M11.2025 14.4406C11.75 16.7131 3.97501 23.4728 1.83168 17.9694C0.590011 14.7807 -0.494989 8.09594 0.738344 7.77819C1.97168 7.46131 10.6542 12.1681 11.2025 14.4406Z" fill="url(#paint1_linear_14_93)"/>
<path d="M11.2025 14.4406C11.75 16.7131 3.97501 23.4728 1.83168 17.9694C0.590011 14.7807 -0.494989 8.09594 0.738344 7.77819C1.97168 7.46131 10.6542 12.1681 11.2025 14.4406Z" fill="black" fill-opacity="0.2"/>
<path d="M9.54002 14.9168C10.34 16.2412 8.01418 18.8443 6.73335 19.6719C5.45252 20.4994 4.31835 19.1965 3.05585 15.8709C2.50418 14.4174 1.66752 10.4726 2.13585 10.1695C2.60502 9.86639 8.73918 13.5924 9.54002 14.9168Z" fill="#012A68"/>
<path d="M3.04417 29.1742C3.04417 28.7833 3.20083 28.2347 3.38333 27.7215C2.89583 27.7456 2.1175 27.886 1.075 28.4251C1.08107 28.0144 1.15812 27.6082 1.3025 27.2255C1.26833 27.2427 1.24 27.2548 1.20583 27.2729C2.125 24.4226 3.96334 22.5221 3.96334 22.5221H2.125C4.0675 18.5068 6.2625 15.6203 8.85417 14.2908C10.0125 13.539 11.9275 13.1386 14.9983 13.1377H15.0008C18.08 13.1377 19.9975 13.5407 21.155 14.2968C23.7417 15.6289 25.9333 18.5128 27.8725 22.5221H26.0333C26.0333 22.5221 27.8725 24.4217 28.7925 27.2729C28.7675 27.26 28.7467 27.2514 28.7225 27.2384C28.9013 27.6051 28.9824 28.0144 28.9575 28.4242C27.905 27.88 27.11 27.7422 26.6133 27.7198C26.7708 28.1616 26.8992 28.6188 26.935 28.9899C27.053 29.3625 27.0914 29.7571 27.0475 30.1464C24.375 28.8918 23.125 29.0709 21.6667 29.8244C20.6558 32.9442 18.1617 35.2778 14.9992 35.2778C11.8383 35.2778 9.3775 32.8718 8.3675 29.7529C7.1525 28.6765 5.2775 28.9994 3.02083 30.1111C2.9718 29.7983 2.98198 29.4787 3.05083 29.1699L3.04417 29.1742Z" fill="url(#paint2_linear_14_93)"/>
<path d="M3.04417 29.1742C3.04417 28.7833 3.20083 28.2347 3.38333 27.7215C2.89583 27.7456 2.1175 27.886 1.075 28.4251C1.08107 28.0144 1.15812 27.6082 1.3025 27.2255C1.26833 27.2427 1.24 27.2548 1.20583 27.2729C2.125 24.4226 3.96334 22.5221 3.96334 22.5221H2.125C4.0675 18.5068 6.2625 15.6203 8.85417 14.2908C10.0125 13.539 11.9275 13.1386 14.9983 13.1377H15.0008C18.08 13.1377 19.9975 13.5407 21.155 14.2968C23.7417 15.6289 25.9333 18.5128 27.8725 22.5221H26.0333C26.0333 22.5221 27.8725 24.4217 28.7925 27.2729C28.7675 27.26 28.7467 27.2514 28.7225 27.2384C28.9013 27.6051 28.9824 28.0144 28.9575 28.4242C27.905 27.88 27.11 27.7422 26.6133 27.7198C26.7708 28.1616 26.8992 28.6188 26.935 28.9899C27.053 29.3625 27.0914 29.7571 27.0475 30.1464C24.375 28.8918 23.125 29.0709 21.6667 29.8244C20.6558 32.9442 18.1617 35.2778 14.9992 35.2778C11.8383 35.2778 9.3775 32.8718 8.3675 29.7529C7.1525 28.6765 5.2775 28.9994 3.02083 30.1111C2.9718 29.7983 2.98198 29.4787 3.05083 29.1699L3.04417 29.1742Z" fill="black" fill-opacity="0.2"/>
<path d="M3.96415 26.3231C3.95915 26.3231 3.04082 26.3257 1.20665 27.2729C2.24748 24.8282 7.47748 23.7682 9.48248 24.439C10.4583 26.1216 10.55 28.7471 12.3016 30.1413C13.7525 31.3735 16.2291 31.3968 17.7008 30.1413C19.655 28.4845 19.8333 25.1356 20.5191 24.439C22.525 23.7664 27.7533 24.8299 28.795 27.2729C26.9608 26.3248 26.0416 26.3231 26.0375 26.3231C26.0375 26.3239 26.9566 28.2244 26.9566 29.1742L26.9558 29.1734V29.1742C24.9575 27.8197 22.6925 27.2186 20.765 28.785C19.3766 35.6059 10.5208 35.2821 9.23748 28.785C7.30915 27.2195 5.04581 27.8188 3.04665 29.1742C3.04498 28.2244 3.96332 26.3231 3.96415 26.3231Z" fill="#FFD983"/>
<path d="M20.8333 20.6389C20.8333 20.6389 20.8333 19.3472 19.5833 19.3472C18.3333 19.3472 18.3333 20.6389 18.3333 20.6389V21.9306C18.3333 21.9306 18.3333 23.2222 19.5833 23.2222C20.8333 23.2222 20.8333 21.9306 20.8333 21.9306V20.6389ZM11.6666 20.6389C11.6666 20.6389 11.6666 19.3472 10.4166 19.3472C9.16665 19.3472 9.16665 20.6389 9.16665 20.6389V21.9306C9.16665 21.9306 9.16665 23.2222 10.4166 23.2222C11.6666 23.2222 11.6666 21.9306 11.6666 21.9306V20.6389ZM17.5508 29.9458C18.4016 30.1249 15.85 33.3627 14.9991 33.3627C14.1491 33.3627 11.5975 30.1249 12.4475 29.9458C13.2983 29.7667 16.7 29.7667 17.5508 29.9458Z" fill="#272B2B"/>
<path d="M45.448 30.5L40.48 13.46H44.104L47.752 27.092H46.648L50.296 13.46H53.92L48.952 30.5H45.448ZM60.7986 30.5V17.636H64.0626V30.5H60.7986ZM56.0226 30.5V27.908H68.1186V30.5H56.0226ZM56.2626 20.228V17.636H63.4626V20.228H56.2626ZM60.7026 16.052V13.22H64.0146V16.052H60.7026ZM70.5093 30.5V17.636H73.4853L73.5813 21.14L73.2453 20.996C73.4053 20.164 73.6773 19.476 74.0613 18.932C74.4613 18.388 74.9493 17.988 75.5253 17.732C76.1013 17.476 76.7413 17.348 77.4453 17.348C78.3733 17.348 79.1253 17.556 79.7013 17.972C80.2933 18.388 80.7333 18.956 81.0213 19.676C81.3093 20.396 81.4532 21.228 81.4532 22.172V30.5H78.1893V22.916C78.1893 21.94 78.0213 21.228 77.6853 20.78C77.3653 20.332 76.8773 20.108 76.2213 20.108C75.7733 20.108 75.3653 20.22 74.9973 20.444C74.6293 20.668 74.3333 20.996 74.1093 21.428C73.8853 21.86 73.7733 22.404 73.7733 23.06V30.5H70.5093ZM89.5799 30.5V17.636H92.8439V30.5H89.5799ZM84.8039 30.5V27.908H96.8999V30.5H84.8039ZM85.0439 20.228V17.636H92.2439V20.228H85.0439ZM89.6999 16.244L91.1879 12.716H94.6919L92.5319 16.244H89.6999ZM104.979 30.788C103.763 30.788 102.683 30.508 101.739 29.948C100.811 29.388 100.083 28.604 99.5545 27.596C99.0425 26.572 98.7865 25.396 98.7865 24.068C98.7865 22.74 99.0425 21.572 99.5545 20.564C100.083 19.556 100.811 18.772 101.739 18.212C102.683 17.636 103.763 17.348 104.979 17.348C105.987 17.348 106.907 17.548 107.739 17.948C108.571 18.348 109.251 18.916 109.779 19.652C110.323 20.388 110.667 21.268 110.811 22.292L107.571 22.46C107.411 21.74 107.107 21.188 106.659 20.804C106.211 20.42 105.659 20.228 105.003 20.228C104.123 20.228 103.427 20.572 102.915 21.26C102.419 21.932 102.171 22.868 102.171 24.068C102.171 25.268 102.419 26.212 102.915 26.9C103.427 27.572 104.123 27.908 105.003 27.908C105.675 27.908 106.235 27.708 106.683 27.308C107.147 26.908 107.451 26.324 107.595 25.556L110.835 25.724C110.707 26.732 110.371 27.62 109.827 28.388C109.283 29.14 108.595 29.732 107.763 30.164C106.931 30.58 106.003 30.788 104.979 30.788ZM118.361 30.5V17.636H121.625V30.5H118.361ZM113.585 30.5V27.908H125.681V30.5H113.585ZM113.825 20.228V17.636H121.025V20.228H113.825ZM118.265 16.052V13.22H121.577V16.052H118.265ZM132.032 30.788C130.832 30.788 129.88 30.388 129.176 29.588C128.472 28.772 128.12 27.596 128.12 26.06V17.636H131.384V25.244C131.384 26.236 131.544 26.948 131.864 27.38C132.2 27.812 132.68 28.028 133.304 28.028C133.96 28.028 134.512 27.78 134.96 27.284C135.424 26.788 135.656 26.06 135.656 25.1V17.636H138.896V30.5H135.896L135.824 26.804L136.208 26.9C136.032 28.132 135.576 29.092 134.84 29.78C134.12 30.452 133.184 30.788 132.032 30.788ZM148.054 30.788C146.822 30.788 145.79 30.596 144.958 30.212C144.126 29.812 143.486 29.292 143.038 28.652C142.606 27.996 142.35 27.268 142.27 26.468L145.486 26.324C145.63 26.852 145.902 27.276 146.302 27.596C146.702 27.9 147.294 28.052 148.078 28.052C148.83 28.052 149.382 27.964 149.734 27.788C150.086 27.612 150.262 27.348 150.262 26.996C150.262 26.74 150.198 26.54 150.07 26.396C149.942 26.236 149.702 26.092 149.35 25.964C148.998 25.82 148.47 25.684 147.766 25.556C146.47 25.284 145.438 24.98 144.67 24.644C143.918 24.292 143.374 23.86 143.038 23.348C142.718 22.82 142.558 22.164 142.558 21.38C142.558 20.644 142.75 19.972 143.134 19.364C143.518 18.756 144.102 18.268 144.886 17.9C145.67 17.532 146.654 17.348 147.838 17.348C149.118 17.348 150.15 17.556 150.934 17.972C151.734 18.388 152.334 18.924 152.734 19.58C153.134 20.236 153.39 20.932 153.502 21.668L150.262 21.812C150.198 21.46 150.062 21.156 149.854 20.9C149.646 20.644 149.374 20.444 149.038 20.3C148.702 20.156 148.302 20.084 147.838 20.084C147.15 20.084 146.654 20.22 146.35 20.492C146.046 20.748 145.894 21.044 145.894 21.38C145.894 21.684 145.974 21.932 146.134 22.124C146.294 22.316 146.582 22.484 146.998 22.628C147.43 22.772 148.03 22.924 148.798 23.084C150.046 23.324 151.014 23.612 151.702 23.948C152.39 24.268 152.878 24.668 153.166 25.148C153.454 25.612 153.598 26.204 153.598 26.924C153.598 27.724 153.374 28.412 152.926 28.988C152.494 29.564 151.862 30.012 151.03 30.332C150.214 30.636 149.222 30.788 148.054 30.788Z" fill="url(#paint3_linear_14_93)"/>
<path d="M45.448 30.5L40.48 13.46H44.104L47.752 27.092H46.648L50.296 13.46H53.92L48.952 30.5H45.448ZM60.7986 30.5V17.636H64.0626V30.5H60.7986ZM56.0226 30.5V27.908H68.1186V30.5H56.0226ZM56.2626 20.228V17.636H63.4626V20.228H56.2626ZM60.7026 16.052V13.22H64.0146V16.052H60.7026ZM70.5093 30.5V17.636H73.4853L73.5813 21.14L73.2453 20.996C73.4053 20.164 73.6773 19.476 74.0613 18.932C74.4613 18.388 74.9493 17.988 75.5253 17.732C76.1013 17.476 76.7413 17.348 77.4453 17.348C78.3733 17.348 79.1253 17.556 79.7013 17.972C80.2933 18.388 80.7333 18.956 81.0213 19.676C81.3093 20.396 81.4532 21.228 81.4532 22.172V30.5H78.1893V22.916C78.1893 21.94 78.0213 21.228 77.6853 20.78C77.3653 20.332 76.8773 20.108 76.2213 20.108C75.7733 20.108 75.3653 20.22 74.9973 20.444C74.6293 20.668 74.3333 20.996 74.1093 21.428C73.8853 21.86 73.7733 22.404 73.7733 23.06V30.5H70.5093ZM89.5799 30.5V17.636H92.8439V30.5H89.5799ZM84.8039 30.5V27.908H96.8999V30.5H84.8039ZM85.0439 20.228V17.636H92.2439V20.228H85.0439ZM89.6999 16.244L91.1879 12.716H94.6919L92.5319 16.244H89.6999ZM104.979 30.788C103.763 30.788 102.683 30.508 101.739 29.948C100.811 29.388 100.083 28.604 99.5545 27.596C99.0425 26.572 98.7865 25.396 98.7865 24.068C98.7865 22.74 99.0425 21.572 99.5545 20.564C100.083 19.556 100.811 18.772 101.739 18.212C102.683 17.636 103.763 17.348 104.979 17.348C105.987 17.348 106.907 17.548 107.739 17.948C108.571 18.348 109.251 18.916 109.779 19.652C110.323 20.388 110.667 21.268 110.811 22.292L107.571 22.46C107.411 21.74 107.107 21.188 106.659 20.804C106.211 20.42 105.659 20.228 105.003 20.228C104.123 20.228 103.427 20.572 102.915 21.26C102.419 21.932 102.171 22.868 102.171 24.068C102.171 25.268 102.419 26.212 102.915 26.9C103.427 27.572 104.123 27.908 105.003 27.908C105.675 27.908 106.235 27.708 106.683 27.308C107.147 26.908 107.451 26.324 107.595 25.556L110.835 25.724C110.707 26.732 110.371 27.62 109.827 28.388C109.283 29.14 108.595 29.732 107.763 30.164C106.931 30.58 106.003 30.788 104.979 30.788ZM118.361 30.5V17.636H121.625V30.5H118.361ZM113.585 30.5V27.908H125.681V30.5H113.585ZM113.825 20.228V17.636H121.025V20.228H113.825ZM118.265 16.052V13.22H121.577V16.052H118.265ZM132.032 30.788C130.832 30.788 129.88 30.388 129.176 29.588C128.472 28.772 128.12 27.596 128.12 26.06V17.636H131.384V25.244C131.384 26.236 131.544 26.948 131.864 27.38C132.2 27.812 132.68 28.028 133.304 28.028C133.96 28.028 134.512 27.78 134.96 27.284C135.424 26.788 135.656 26.06 135.656 25.1V17.636H138.896V30.5H135.896L135.824 26.804L136.208 26.9C136.032 28.132 135.576 29.092 134.84 29.78C134.12 30.452 133.184 30.788 132.032 30.788ZM148.054 30.788C146.822 30.788 145.79 30.596 144.958 30.212C144.126 29.812 143.486 29.292 143.038 28.652C142.606 27.996 142.35 27.268 142.27 26.468L145.486 26.324C145.63 26.852 145.902 27.276 146.302 27.596C146.702 27.9 147.294 28.052 148.078 28.052C148.83 28.052 149.382 27.964 149.734 27.788C150.086 27.612 150.262 27.348 150.262 26.996C150.262 26.74 150.198 26.54 150.07 26.396C149.942 26.236 149.702 26.092 149.35 25.964C148.998 25.82 148.47 25.684 147.766 25.556C146.47 25.284 145.438 24.98 144.67 24.644C143.918 24.292 143.374 23.86 143.038 23.348C142.718 22.82 142.558 22.164 142.558 21.38C142.558 20.644 142.75 19.972 143.134 19.364C143.518 18.756 144.102 18.268 144.886 17.9C145.67 17.532 146.654 17.348 147.838 17.348C149.118 17.348 150.15 17.556 150.934 17.972C151.734 18.388 152.334 18.924 152.734 19.58C153.134 20.236 153.39 20.932 153.502 21.668L150.262 21.812C150.198 21.46 150.062 21.156 149.854 20.9C149.646 20.644 149.374 20.444 149.038 20.3C148.702 20.156 148.302 20.084 147.838 20.084C147.15 20.084 146.654 20.22 146.35 20.492C146.046 20.748 145.894 21.044 145.894 21.38C145.894 21.684 145.974 21.932 146.134 22.124C146.294 22.316 146.582 22.484 146.998 22.628C147.43 22.772 148.03 22.924 148.798 23.084C150.046 23.324 151.014 23.612 151.702 23.948C152.39 24.268 152.878 24.668 153.166 25.148C153.454 25.612 153.598 26.204 153.598 26.924C153.598 27.724 153.374 28.412 152.926 28.988C152.494 29.564 151.862 30.012 151.03 30.332C150.214 30.636 149.222 30.788 148.054 30.788Z" fill="black" fill-opacity="0.2"/>
<defs>
<linearGradient id="paint0_linear_14_93" x1="27.2838" y1="9.07499" x2="18.3689" y2="13.4264" gradientUnits="userSpaceOnUse">
<stop stop-color="#5271ED"/>
<stop offset="1" stop-color="#753BBC"/>
</linearGradient>
<linearGradient id="paint1_linear_14_93" x1="8.69914" y1="9.075" x2="-0.215744" y2="13.4264" gradientUnits="userSpaceOnUse">
<stop stop-color="#5271ED"/>
<stop offset="1" stop-color="#753BBC"/>
</linearGradient>
<linearGradient id="paint2_linear_14_93" x1="22.5658" y1="15.4969" x2="3.59612" y2="28.5105" gradientUnits="userSpaceOnUse">
<stop stop-color="#5271ED"/>
<stop offset="1" stop-color="#753BBC"/>
</linearGradient>
<linearGradient id="paint3_linear_14_93" x1="67.5229" y1="15.2049" x2="74.3106" y2="42.9311" gradientUnits="userSpaceOnUse">
<stop stop-color="#5271ED"/>
<stop offset="1" stop-color="#753BBC"/>
</linearGradient>
</defs>
</svg>
